<svg xmlns:xlink="http://www.w3.org/1999/xlink" width="100" xmlns="http://www.w3.org/2000/svg" height="100" id="screenshot-a6c1a472-a1cc-80e3-8001-e5729ef5b9c3" viewBox="-0 -0 100 100" style="-webkit-print-color-adjust: exact;" fill="none" version="1.1"><g id="shape-a6c1a472-a1cc-80e3-8001-e5729ef5b9c3"><defs><clipPath id="frame-clip-a6c1a472-a1cc-80e3-8001-e5729ef5b9c3-4dbdbb4b-1c79-8030-8001-e59295c171d9" class="frame-clip"><rect rx="0" ry="0" x="0" y="0" width="99.99999324499731" height="99.99999845417871" transform="matrix(1,0,0,1,0.000001,0.000004)" style="fill: rgb(9, 4, 23); fill-opacity: 1;"/></clipPath></defs><g clip-path="url(#frame-clip-a6c1a472-a1cc-80e3-8001-e5729ef5b9c3-4dbdbb4b-1c79-8030-8001-e59295c171d9)"><clipPath id="frame-clip-a6c1a472-a1cc-80e3-8001-e5729ef5b9c3-4dbdbb4b-1c79-8030-8001-e59295c171d9" class="frame-clip"><rect rx="0" ry="0" x="0" y="0" width="99.99999324499731" height="99.99999845417871" transform="matrix(1,0,0,1,0.000001,0.000004)" style="fill: rgb(9, 4, 23); fill-opacity: 1;"/></clipPath><g id="fills-a6c1a472-a1cc-80e3-8001-e5729ef5b9c3"><rect width="99.99999324499731" height="99.99999845417871" class="frame-background" x="0" transform="matrix(1,0,0,1,0.000001,0.000004)" style="fill: rgb(9, 4, 23); fill-opacity: 1;" ry="0" rx="0" y="0"/></g><g class="frame-children"><g id="shape-a6c1a472-a1cc-80e3-8001-e5729ef5b9c4"><defs><filter id="filter_4dbdbb4b-1c79-8030-8001-e59295c372b7" x="-2.3999999999999995" y="-2.3999999999999995" width="5.799999999999999" height="5.799999999999999" filterUnits="objectBoundingBox" color-interpolation-filters="sRGB"><feFlood flood-opacity="0" result="BackgroundImageFix"/><feColorMatrix in="SourceAlpha" type="matrix" values="0 0 0 0 0 0 0 0 0 0 0 0 0 0 0 0 0 0 127 0"/><feMorphology radius="5" operator="dilate" in="SourceAlpha" result="filter_4010b198-d344-8096-8001-e44cd4768f73"/><feOffset dx="0" dy="0"/><feGaussianBlur stdDeviation="5"/><feColorMatrix type="matrix" values="0 0 0 0 1 0 0 0 0 1 0 0 0 0 1 0 0 0 0.5 0"/><feBlend mode="normal" in2="BackgroundImageFix" result="filter_4010b198-d344-8096-8001-e44cd4768f73"/><feBlend mode="normal" in="SourceGraphic" in2="filter_4010b198-d344-8096-8001-e44cd4768f73" result="shape"/></filter><filter id="filter_shadow_4dbdbb4b-1c79-8030-8001-e59295c372b7" x="-2.3999999999999995" y="-2.3999999999999995" width="5.799999999999999" height="5.799999999999999" filterUnits="objectBoundingBox" color-interpolation-filters="sRGB"><feFlood flood-opacity="0" result="BackgroundImageFix"/><feColorMatrix in="SourceAlpha" type="matrix" values="0 0 0 0 0 0 0 0 0 0 0 0 0 0 0 0 0 0 127 0"/><feMorphology radius="5" operator="dilate" in="SourceAlpha" result="filter_4010b198-d344-8096-8001-e44cd4768f73"/><feOffset dx="0" dy="0"/><feGaussianBlur stdDeviation="5"/><feColorMatrix type="matrix" values="0 0 0 0 1 0 0 0 0 1 0 0 0 0 1 0 0 0 0.5 0"/><feBlend mode="normal" in2="BackgroundImageFix" result="filter_4010b198-d344-8096-8001-e44cd4768f73"/><feBlend mode="normal" in="SourceGraphic" in2="filter_4010b198-d344-8096-8001-e44cd4768f73" result="shape"/></filter></defs><g id="fills-a6c1a472-a1cc-80e3-8001-e5729ef5b9c4"><ellipse rx="12.500000000000002" ry="12.500000000000002" cx="50.0000000372529" cy="50.000000031044095" transform="matrix(1,0,0,1,0,-0.000001)" filter="url(#filter_4dbdbb4b-1c79-8030-8001-e59295c372b7)" style="fill: rgb(255, 255, 255); fill-opacity: 1;"/></g></g><g id="shape-a6c1a472-a1cc-80e3-8001-e5729ef5b9c5"><g id="fills-a6c1a472-a1cc-80e3-8001-e5729ef5b9c5"><path rx="0" ry="0" d="M29,35.756C57.854,-1.671,91.477,28.479,91.477,28.479"/></g><g id="strokes-a6c1a472-a1cc-80e3-8001-e5729ef5b9c5"><g class="stroke-shape"><path rx="0" ry="0" d="M29,35.756C57.854,-1.671,91.477,28.479,91.477,28.479" style="fill: none; stroke-width: 5; stroke: rgb(255, 255, 255); stroke-opacity: 1; stroke-linecap: round;"/></g></g></g><g id="shape-a6c1a472-a1cc-80e3-8001-e5729ef5b9c6"><g id="fills-a6c1a472-a1cc-80e3-8001-e5729ef5b9c6"><path rx="0" ry="0" d="M64,28C101.427,56.854,71.277,90.477,71.277,90.477"/></g><g id="strokes-a6c1a472-a1cc-80e3-8001-e5729ef5b9c6"><g class="stroke-shape"><path rx="0" ry="0" d="M64,28C101.427,56.854,71.277,90.477,71.277,90.477" style="fill: none; stroke-width: 5; stroke: rgb(255, 255, 255); stroke-opacity: 1; stroke-linecap: round;"/></g></g></g><g id="shape-a6c1a472-a1cc-80e3-8001-e5729ef5b9c7"><g id="fills-a6c1a472-a1cc-80e3-8001-e5729ef5b9c7"><path rx="0" ry="0" d="M71.477,63C42.623,100.427,9,70.277,9,70.277"/></g><g id="strokes-a6c1a472-a1cc-80e3-8001-e5729ef5b9c7"><g class="stroke-shape"><path rx="0" ry="0" d="M71.477,63C42.623,100.427,9,70.277,9,70.277" style="fill: none; stroke-width: 5; stroke: rgb(255, 255, 255); stroke-opacity: 1; stroke-linecap: round;"/></g></g></g><g id="shape-a6c1a472-a1cc-80e3-8001-e5729ef5b9c8"><g id="fills-a6c1a472-a1cc-80e3-8001-e5729ef5b9c8"><path rx="0" ry="0" d="M35.756,70.477C-1.671,41.623,28.479,8,28.479,8"/></g><g id="strokes-a6c1a472-a1cc-80e3-8001-e5729ef5b9c8"><g class="stroke-shape"><path rx="0" ry="0" d="M35.756,70.477C-1.671,41.623,28.479,8,28.479,8" style="fill: none; stroke-width: 5; stroke: rgb(255, 255, 255); stroke-opacity: 1; stroke-linecap: round;"/></g></g></g><g id="shape-a6c1a472-a1cc-80e3-8001-e572e0b41cdf" style="mix-blend-mode: multiply;"><defs><linearGradient id="fill-color-gradient_4dbdbb4b-1c79-8030-8001-e59295c8fa42_0" x1="0.01925136901200034" y1="0.9746772996252647" x2="0.9802947821154546" y2="0.020516979976805204" gradientTransform="matrix(1,0,0,1,0,0)"><stop offset="0" stop-color="#5f10a9" stop-opacity="1"/><stop offset="1" stop-color="#5f10a9" stop-opacity="0"/></linearGradient><pattern patternUnits="userSpaceOnUse" x="-0.000001384290499117924" y="-0.000004275816337440119" height="100" width="100" data-loading="false" patternTransform="matrix(1,0,0,1,0,0)" id="fill-0-4dbdbb4b-1c79-8030-8001-e59295c8fa42"><g><rect width="100" height="100" style="fill: url(&quot;#fill-color-gradient_4dbdbb4b-1c79-8030-8001-e59295c8fa42_0&quot;);"/></g></pattern></defs><g id="fills-a6c1a472-a1cc-80e3-8001-e572e0b41cdf"><path rx="0" ry="0" d="M0,0L100,0L100,100L0,100L0,0Z" fill="url(#fill-0-4dbdbb4b-1c79-8030-8001-e59295c8fa42)"/></g></g></g></g></g></svg>