<svg xmlns:xlink="http://www.w3.org/1999/xlink" width="100" xmlns="http://www.w3.org/2000/svg" height="100" id="screenshot-4010b198-d344-8096-8001-e44a06c623e0" viewBox="-0 -0 100 100" style="-webkit-print-color-adjust: exact;" fill="none" version="1.1"><g id="shape-4010b198-d344-8096-8001-e44a06c623e0"><defs><clipPath id="frame-clip-4010b198-d344-8096-8001-e44a06c623e0-0e67a792-85db-802b-8001-e57478128cfd" class="frame-clip"><rect rx="0" ry="0" x="0" y="0" width="99.99999324499731" height="99.99999845417871" transform="matrix(1,0,0,1,0.000001,0.000004)" style="fill: rgb(0, 0, 0); fill-opacity: 1;"/></clipPath></defs><g clip-path="url(#frame-clip-4010b198-d344-8096-8001-e44a06c623e0-0e67a792-85db-802b-8001-e57478128cfd)"><clipPath id="frame-clip-4010b198-d344-8096-8001-e44a06c623e0-0e67a792-85db-802b-8001-e57478128cfd" class="frame-clip"><rect rx="0" ry="0" x="0" y="0" width="99.99999324499731" height="99.99999845417871" transform="matrix(1,0,0,1,0.000001,0.000004)" style="fill: rgb(0, 0, 0); fill-opacity: 1;"/></clipPath><g id="fills-4010b198-d344-8096-8001-e44a06c623e0"><rect width="99.99999324499731" height="99.99999845417871" class="frame-background" x="0" transform="matrix(1,0,0,1,0.000001,0.000004)" style="fill: rgb(0, 0, 0); fill-opacity: 1;" ry="0" rx="0" y="0"/></g><g class="frame-children"><g id="shape-4010b198-d344-8096-8001-e44a1bc67483"><defs><filter id="filter_0e67a792-85db-802b-8001-e57478133028" x="-2.3999999999999995" y="-2.3999999999999995" width="5.799999999999999" height="5.799999999999999" filterUnits="objectBoundingBox" color-interpolation-filters="sRGB"><feFlood flood-opacity="0" result="BackgroundImageFix"/><feColorMatrix in="SourceAlpha" type="matrix" values="0 0 0 0 0 0 0 0 0 0 0 0 0 0 0 0 0 0 127 0"/><feMorphology radius="5" operator="dilate" in="SourceAlpha" result="filter_4010b198-d344-8096-8001-e44cd4768f73"/><feOffset dx="0" dy="0"/><feGaussianBlur stdDeviation="5"/><feColorMatrix type="matrix" values="0 0 0 0 1 0 0 0 0 1 0 0 0 0 1 0 0 0 0.5 0"/><feBlend mode="normal" in2="BackgroundImageFix" result="filter_4010b198-d344-8096-8001-e44cd4768f73"/><feBlend mode="normal" in="SourceGraphic" in2="filter_4010b198-d344-8096-8001-e44cd4768f73" result="shape"/></filter><filter id="filter_shadow_0e67a792-85db-802b-8001-e57478133028" x="-2.3999999999999995" y="-2.3999999999999995" width="5.799999999999999" height="5.799999999999999" filterUnits="objectBoundingBox" color-interpolation-filters="sRGB"><feFlood flood-opacity="0" result="BackgroundImageFix"/><feColorMatrix in="SourceAlpha" type="matrix" values="0 0 0 0 0 0 0 0 0 0 0 0 0 0 0 0 0 0 127 0"/><feMorphology radius="5" operator="dilate" in="SourceAlpha" result="filter_4010b198-d344-8096-8001-e44cd4768f73"/><feOffset dx="0" dy="0"/><feGaussianBlur stdDeviation="5"/><feColorMatrix type="matrix" values="0 0 0 0 1 0 0 0 0 1 0 0 0 0 1 0 0 0 0.5 0"/><feBlend mode="normal" in2="BackgroundImageFix" result="filter_4010b198-d344-8096-8001-e44cd4768f73"/><feBlend mode="normal" in="SourceGraphic" in2="filter_4010b198-d344-8096-8001-e44cd4768f73" result="shape"/></filter></defs><g id="fills-4010b198-d344-8096-8001-e44a1bc67483"><ellipse rx="12.500000000000002" ry="12.500000000000002" cx="50.0000000372529" cy="50.00000003104409" transform="matrix(1,0,0,1,0,-0.000001)" filter="url(#filter_0e67a792-85db-802b-8001-e57478133028)" style="fill: rgb(255, 255, 255); fill-opacity: 1;"/></g></g><g id="shape-4010b198-d344-8096-8001-e44a6bc668bd"><g id="fills-4010b198-d344-8096-8001-e44a6bc668bd"><path rx="0" ry="0" d="M29,35.756C57.854,-1.671,91.477,28.479,91.477,28.479"/></g><g id="strokes-4010b198-d344-8096-8001-e44a6bc668bd"><g class="stroke-shape"><path rx="0" ry="0" d="M29,35.756C57.854,-1.671,91.477,28.479,91.477,28.479" style="fill: none; stroke-width: 5; stroke: rgb(255, 255, 255); stroke-opacity: 1; stroke-linecap: round;"/></g></g></g><g id="shape-4010b198-d344-8096-8001-e44c81f6270c"><g id="fills-4010b198-d344-8096-8001-e44c81f6270c"><path rx="0" ry="0" d="M64,28C101.427,56.854,71.277,90.477,71.277,90.477"/></g><g id="strokes-4010b198-d344-8096-8001-e44c81f6270c"><g class="stroke-shape"><path rx="0" ry="0" d="M64,28C101.427,56.854,71.277,90.477,71.277,90.477" style="fill: none; stroke-width: 5; stroke: rgb(255, 255, 255); stroke-opacity: 1; stroke-linecap: round;"/></g></g></g><g id="shape-4010b198-d344-8096-8001-e44c8fc8081e"><g id="fills-4010b198-d344-8096-8001-e44c8fc8081e"><path rx="0" ry="0" d="M71.477,63C42.623,100.427,9,70.277,9,70.277"/></g><g id="strokes-4010b198-d344-8096-8001-e44c8fc8081e"><g class="stroke-shape"><path rx="0" ry="0" d="M71.477,63C42.623,100.427,9,70.277,9,70.277" style="fill: none; stroke-width: 5; stroke: rgb(255, 255, 255); stroke-opacity: 1; stroke-linecap: round;"/></g></g></g><g id="shape-4010b198-d344-8096-8001-e44cb6c26c7b"><g id="fills-4010b198-d344-8096-8001-e44cb6c26c7b"><path rx="0" ry="0" d="M35.756,70.477C-1.671,41.623,28.479,8,28.479,8"/></g><g id="strokes-4010b198-d344-8096-8001-e44cb6c26c7b"><g class="stroke-shape"><path rx="0" ry="0" d="M35.756,70.477C-1.671,41.623,28.479,8,28.479,8" style="fill: none; stroke-width: 5; stroke: rgb(255, 255, 255); stroke-opacity: 1; stroke-linecap: round;"/></g></g></g></g></g></g></svg>