<svg xmlns:xlink="http://www.w3.org/1999/xlink" width="100" xmlns="http://www.w3.org/2000/svg" height="100" id="screenshot-2adfa3a9-6b85-8033-8001-e54a85363ba8" viewBox="-0 -0 100 100" style="-webkit-print-color-adjust: exact;" fill="none" version="1.1"><g id="shape-2adfa3a9-6b85-8033-8001-e54a85363ba8"><defs><clipPath id="frame-clip-2adfa3a9-6b85-8033-8001-e54a85363ba8-0e67a792-85db-802b-8001-e574780e3dc6" class="frame-clip"><rect rx="0" ry="0" x="0" y="0" width="99.99999324499731" height="99.99999845417871" transform="matrix(1,0,0,1,0.000001,0.000004)" style="fill: rgb(0, 0, 0); fill-opacity: 1;"/></clipPath></defs><g clip-path="url(#frame-clip-2adfa3a9-6b85-8033-8001-e54a85363ba8-0e67a792-85db-802b-8001-e574780e3dc6)"><clipPath id="frame-clip-2adfa3a9-6b85-8033-8001-e54a85363ba8-0e67a792-85db-802b-8001-e574780e3dc6" class="frame-clip"><rect rx="0" ry="0" x="0" y="0" width="99.99999324499731" height="99.99999845417871" transform="matrix(1,0,0,1,0.000001,0.000004)" style="fill: rgb(0, 0, 0); fill-opacity: 1;"/></clipPath><g id="fills-2adfa3a9-6b85-8033-8001-e54a85363ba8"><rect width="99.99999324499731" height="99.99999845417871" class="frame-background" x="0" transform="matrix(1,0,0,1,0.000001,0.000004)" style="fill: rgb(0, 0, 0); fill-opacity: 1;" ry="0" rx="0" y="0"/></g><g class="frame-children"><g id="shape-2adfa3a9-6b85-8033-8001-e54a85363ba9"><g id="fills-2adfa3a9-6b85-8033-8001-e54a85363ba9"><ellipse rx="12.500000000000002" ry="12.500000000000002" cx="50.0000000372529" cy="50.00000003104409" transform="matrix(1,0,0,1,0,-0.000001)" style="fill: rgb(255, 255, 255); fill-opacity: 1;"/></g></g><g id="shape-2adfa3a9-6b85-8033-8001-e54a85367a23"><g id="fills-2adfa3a9-6b85-8033-8001-e54a85367a23"><path rx="0" ry="0" d="M29,35.756C57.854,-1.671,91.477,28.479,91.477,28.479"/></g><g id="strokes-2adfa3a9-6b85-8033-8001-e54a85367a23"><g class="stroke-shape"><path rx="0" ry="0" d="M29,35.756C57.854,-1.671,91.477,28.479,91.477,28.479" style="fill: none; stroke-width: 5; stroke: rgb(255, 255, 255); stroke-opacity: 1; stroke-linecap: round;"/></g></g></g><g id="shape-2adfa3a9-6b85-8033-8001-e54a85367a24"><g id="fills-2adfa3a9-6b85-8033-8001-e54a85367a24"><path rx="0" ry="0" d="M64,28C101.427,56.854,71.277,90.477,71.277,90.477"/></g><g id="strokes-2adfa3a9-6b85-8033-8001-e54a85367a24"><g class="stroke-shape"><path rx="0" ry="0" d="M64,28C101.427,56.854,71.277,90.477,71.277,90.477" style="fill: none; stroke-width: 5; stroke: rgb(255, 255, 255); stroke-opacity: 1; stroke-linecap: round;"/></g></g></g><g id="shape-2adfa3a9-6b85-8033-8001-e54a85367a25"><g id="fills-2adfa3a9-6b85-8033-8001-e54a85367a25"><path rx="0" ry="0" d="M71.477,63C42.623,100.427,9,70.277,9,70.277"/></g><g id="strokes-2adfa3a9-6b85-8033-8001-e54a85367a25"><g class="stroke-shape"><path rx="0" ry="0" d="M71.477,63C42.623,100.427,9,70.277,9,70.277" style="fill: none; stroke-width: 5; stroke: rgb(255, 255, 255); stroke-opacity: 1; stroke-linecap: round;"/></g></g></g><g id="shape-2adfa3a9-6b85-8033-8001-e54a85367a26"><g id="fills-2adfa3a9-6b85-8033-8001-e54a85367a26"><path rx="0" ry="0" d="M35.756,70.477C-1.671,41.623,28.479,8,28.479,8"/></g><g id="strokes-2adfa3a9-6b85-8033-8001-e54a85367a26"><g class="stroke-shape"><path rx="0" ry="0" d="M35.756,70.477C-1.671,41.623,28.479,8,28.479,8" style="fill: none; stroke-width: 5; stroke: rgb(255, 255, 255); stroke-opacity: 1; stroke-linecap: round;"/></g></g></g></g></g></g></svg>